<mxfile host="app.diagrams.net" modified="2023-08-16T21:02:41.828Z" agent="Mozilla/5.0 (Macintosh; Intel Mac OS X 10_15_7) AppleWebKit/537.36 (KHTML, like Gecko) Chrome/115.0.0.0 Safari/537.36" etag="a5cn6cYuXnVWSGmBAcgz" version="21.6.8" type="github">
  <diagram name="PÃ¡gina-1" id="eJ77B7gUj0XejkIEUnCr">
    <mxGraphModel dx="1434" dy="797" grid="1" gridSize="10" guides="1" tooltips="1" connect="1" arrows="1" fold="1" page="1" pageScale="1" pageWidth="827" pageHeight="1169" math="0" shadow="0">
      <root>
        <mxCell id="0" />
        <mxCell id="1" parent="0" />
        <mxCell id="bWRVc3cfwopEE2IEMO9N-3" value="" style="shape=image;verticalLabelPosition=bottom;labelBackgroundColor=default;verticalAlign=top;aspect=fixed;imageAspect=0;image=data:image/png,iVBORw0KGgoAAAANSUhEUgAAANEAAADyCAMAAADk3NBFAAAAYFBMVEX///8A2P8A1/8A1v9d4v/e+f/2/v925v/7///v/f+58v/1/v/i+v/T9/+x8P/a+P/o+/+m7v/F9P++8/9r5P+K6f8+3v9U4f+g7f+I6f9k4/+W6//M9v9D3/9V4f8o2/8KNWwqAAAXBElEQVR4nO1d69ayKBR+BUvNU3nMzLj/uxxhg6IBguWsWbN6fsx8byqyYbPP4N/fDz/88MMPP/zwww8//PDDDz/8/xHlz6JIk/CbbV6f2a3vb+Xpq63aILw8CAZ4JMiSb7SZ3HzR5tjqo/xGm7Y4dwgjTwAhjEmXftbkqR6pmdscW8Uk+05vLVB62FthpIrco90tZg1+a9LzcBt/sdcGdGIsEcPcAVyd9rR37r15dhCdcdEo8r7CzlsIMO+/17we/kDQzC0Iv5yZ71wjPD2OvaGq+74eFxT610jqMQxll3JxFKf310TUSJNbH+6Cg0dyXrdZxKUVvIccLvSerO+4Oi9+DS8TUQgH9txfkumpJls2+Zd69BLyv9FrE9hr8P39QnSfeodudm1FL/4ExoFiBcaEvevyWYe3UFNewL36YiZowk1u0dYdiRHo1LMaAT8eyncxY4RWe33kIs5E9VZT10bcqqFnRGEav++AiQVs0js3vtIxMUvyGxdm+HU13FWxm3Z11RJ0FW2MWdiJvioWm8DZF3Q/jY1FbAQPtB1K+gK0JcpOnJ9we9bckXuc6G7rjcF4Ixrce2qLB20/2L7vDtOEPbW+5RyHybb8OLFJMjHmRwiZNLWxChKYJoRVclwYHZsTRNFQPrfUBu5IMbVL7O6teber9YWYE+sVVu3c6TtfTt10QG/JdAxPWCu4WS6mhP88WBoWCVu6bv20R4tcVPh5wO/GZgFa1Y7jGNjtNgp7D1jjDoZoxxfTvPIy/ouDZUOl0VHy++qwjAAZF2qCAG63ey5DzhaSLas74omddcOJrxoQVnzOGifPtHB/qzWyHaMVgaHH7AyQ2thRcDHRQNyesQXlGXezsQU66j9w4d7F+QaYEkQ66+MzBPvWKKekEZS5gjjKIwf4lCI7vbhAwOXBTs+AWQ0fxs40YOpoj2boRGhklzmzdyAtwAZr1/T33LXdpVYqJ73uBOr27zODO+5+Gzwm88MHqdjdFNUfcV3936PoJkmGHdzDlMYx/sROii4gtrlechdaR1PkLBmewmjgQty5gfo4n2+XrEtm7+HBXB3PNd9woGTYo49iiMGC6TMwg6ZxfO1OU8UGTNWZo1FvaBYhSwj7OkaymT46JuG3Q9WxsNycX4hgxuwdWIrXjoG0RO0sdLr1ykmYU+7GQ81e42sbzJt0sZ253JbDxQV2jhuQ4yJ2tIPIwb3JofdLIxPUrYvAO9A/cvTKz2D4rG05ppYcmokO9GFZ5MS+bSar8bsXr/tdAzrTzhLfEm7+MUgFRVfOnpN0oNmDw1KXzAyyTPBf9AYCX1+W1geTR27y3h4ve113BTGtlmkZaCm7lwZHhvLr7XyYAFgHuo4w6WAZFRqOU7Awtnb92OoysV9KjEP31+eYkdsKu8sWW13BIrfQm9GhuYkzG/ltYZds97e0XUo7QtMuIHahs8aCp4Avt2XYkYH8Py53NgM6oImkzobnmOF8lootgOzNONyRyZY/MMrQY+MmMEZRFzxeDSFQXgZAmFWvETL4jyCAiNfWmifHWd4UqcHGivLy3j0GMtViLWrvJKBFXd5IYBv0tyJRL88rm+/j6mhClbKP0qyuGo9NgpoGI5CYRTIE9/K0Iqw8VjDwUMPE1ec0CwaykxIFbZQwRB59OUtJGjZx8slcwWJnVPKcn7cKaFH3bVo7ouyOSL0WF3QPj5fa+sLIao4L4wOYdiBF1+Bl4a8gg0fsH0F9zy7PNE+u8TmUV8Eo9qLrKU+L7HbvgkaU173RxuqTH7cnE4iH1t9CD5YdgHH3mkd3YwLMwc9lM4fufdAS733GEdZ5JN/Cs25Wr0SMlHFF50wKhxDdthdNTHiC9xNen1ntKzm5uhxh152zx3JuKDFNdS9kW8e305oSgnW52TnPunbFh+Ormv67ecs48xfrhjJ5kOXruSgcnASOkCgd42tRD578SvrG7xFV+isxgIJCxQYhXHVThyzQr7RDwvy2YHI6U7cvsN+p86QCdV5DolYQwEGu8Vx4Ss2pLyS9Ff7pfyjKy2GenVEGBOW51BpCqXa0jYCZVbYI3ssp7YlMFLnvDt6F93l6RjaumRtx1sYPYEW4645S61dkk4cZ3QYs9SXYtaLo/ox5XPqJBpahULDdfXeRLOMtVWjIl02gKBukvQy+856TeX/GaAgEspOXqV3zaL8yjDRR1vO6iPTaE4kmNxfjNu/PaLKl8IqxMtX30A20BWB63/I4paL67fnAU88q+/B+Me/PeLz74NT+RusY19PSyVaDKAvV1fwdTbuVLAr/AVdfGJyoU4l/JdvRPrlVE8pIVeMR4xXTzT2Y9md4NrriNu03qdXqLFJIOw3fWKNS8GxmcJgzvj/Dw/6WcI1asT9Dv4uIsd1iQM+LbOsORIoGBo1QBQiaEDKPYyHK/007vSB1J/8SbImFMMnzk2khwyTLwWAWYTC12QtmMhmStSj/N5saawv7ZBQLYRmIba5NrQ32MeEg81i/mTeKHqK72rF68NrlLZFFuV5O6YD5pbZQ41pyQqgFrdHBYLdLoX9ikZMoCN9UqI70h7zukmwGTcFejhZ/al5+nzZSzvaH+vWvpbO4eocGYcU3M6jG6QxKAfsW3gBZxFapza8OYUfNih4DDyRL1n2s+ECHknOeYkA5QVZFfb2skjKtO8Crvd+AlQE4EC98VmKDj7HElWhIgpodS4/6Kis/Tye5c20UDzcKRmBEiKjL3SGLzevcVlKcl4rZVr8xlVRN71a6F5FmhoC3FY32UkusLMO28LhSlH1k79UhRoBPQzmEOWxKP6/RE6Tp7TzbxdS+FfgeLWniI2BFh/pEItYcDKxCIfQKoSCTpBi9bGJmKvhc3OFqjpIBfOf6o55b+mD/KDJWkZkgdXie2buNWKcu6eRhqfVBoTgl0iIeJel07BFsUKTscMklXKDVBzqwkp35kQF5zpvsmb4YQl293HkzWaFUNg1MkrF0QI1SDgqcrGW/BB75oT1QRUsuW1OkDtCDpbAyH+zgS/Naoz0RAqjX9DQW/2M7oaR0pwbRqnPSKJFl/67k7TQLyoDWJj2aDHgqWnUvypijBRCKcY+zEe6eqKy06zbTadii5TEE50gmRAuYNnvuLGC7c7NXFeF8WlCk9rhz3qr7GTDJ5Ii6FmsKhODuKg3p0oYitUcFztaOXcrh1OaeDYcMYCwr/Uc7ipTx68vu2Cy1Y9jq2TtHpoqzQk+RJAQNc7Qj4T/PUbpzHYl5UF1LP15H7ntg5m2msZudO0EkulWTtGXVedp5ELLOPVTGSnxeU9fc6ybFNKjtL4spUsqUfNJHzsJumEMFCx/bGo/JZlCeKmFhM6jsrnayGVxlVS7F9657Qrygl4nOSLYQdirhzasB5IiDLVrZlmt3WIYdm9hEG9gyuOScINUkgBcAR964GXblYlpyd/8Iqrju/EAfxWBsuLDqhfLk3YKHXYYYjmaauaVy9mHBgQ65xasIiYVbU6QLTVDOiZ37Az7s7ES6xxkakZ8IdBHizDxJqnCpcGH5MUEOOpLFGbA8SOAaIOs0IPAp5ZurNorvG2NBqgkgEx0nbTZMCb5zazGuPCxgm0eVjloKtAqaGOJ1umS/4JzWJRgUKOJ1k0tql4CGLDYIFgiFqsRKpCVJnfJhbMKNbgjY2TltlTKmKkqO7IpgMjkn1k8cuEasCuR7OrG6bIfdZxOE5y9R3BtzkmxCs5NcoACbV22HBW+VkvQVSiEGictp8mwNmdxwlEXMg/zaE80mJMtZ0ScnpEKCmR5fbQwES0MhsgtC8tSlZjbPtididSv/Q2sLUVwaUf7HClkfmpUK0lOyE3zkbbptV3FgmXatiLRlZVbX3ip4VOjULCC5Pwgv/8y0a31YGx+sUfMeu56PlOZQObhHHDxnsltTbi/MAL/TJJnC8GwcJYUvzpIFBifnyfP/eDCS/RTHODZ6/yR40xVXrQS3BRvrJePSLdJ67/z6Eoczbomy0Bd36gqJwnXy/48r7Q+OwKkVciAxFDRchRDdOkCT4cKnCeFAKZVKWRlxgATfXZgNc7w2EZhvrZqBiR47XTOK8Wo+ilYxRKyaYc1hmaECYBut0sW7qVVS/hAKAbfW1W/pVEiE/TeVgJQM1mwKBz3A5n4b7khljJTNRM9GZcwK2VwySG4LKaViuj+uT3ZEqynYixT67K2S71pPlbPYc2aI+1yYhwJpopRM9yeEw56Nq9onl5V8cdZOB7Vjb89hSlIp8ThRndD1TL0qXm+ocjbjtM4KT4hnaReWDyT15rZ311g2V7oiXh79VDPdn1CS7oWdjT7y84IQXJT5SKqNbj46hKt4TTNN985URaA3t6DK2XUX4c0gJaEMslkU5QcfH/x2XZaTKdTrdOcqHmMFcCLUmizkwQJvnp7bdw7TKB5o4RMgEmSqj3bc1FLYCN3E0t0tciUbLc2rd30qQY3z+3YdbwiydDVisCRc3pspFl9yqV8Er/fqfPqJjnecy8pbzhTbdOLXWToZgHDkrgPfnReMGuflvSLoffdb039xdhZI6zcnG/bwET+4X9KEF3LZx3chwl0mRVZXA99Suxi0VWDx+zixciDvbaOl2C4Ke0TxrUhPSaT3iMJzlJzS8lLjaVTetpKy3ZbBsYdh//FCvip83g2bYSlJYrQJIU0zDG37av22bYehaehec7EtVvM87Ijt6EZfZq0e+ckJf/bHoyfwvJ4uPnlv0Kct+D7Utr4IozrXKvQvgU2AZMKHSXkPht17yiW6YTlWo5yJ3994lFzgJphixOJTcavpvn80s5JhKvh1BvZA8wr67Kn0mSWuOAJbXB1G17Tgy70hi03kMuCMBojRZPnV6FT1e6st7GB3hgZkaMfbwji6JqdTnj450jQ/JdcopkLwzgTzZl/31vhYovGstIOndnMXeFoqY9hvad1DR0AUaNtWTBXpnHVTnq2hTo4UDdbnBbE0g7HIAowFG0eUHd1y1BeDMusKIgju6K3w+ybJE9gnIY46RaOzEgwU/DQ+XbCGV5ZYRY4uR1oNL9pLu33jqSmxyxeRnQFqzep74HKMLywltdgFnrSMSMQ7ykdscd7Of0h4vCXkBUzEKsD495izOhOn+YfErkI68GpC67KfA8/JZ9+ysK97g0rYt3XHD3qz9+IOFN+uBa0QT14df82nziEkeuBp2M5f0IAFsxTSL20EVQfno3bt4X7Qtv8mAzrX2MoHtc7bYAzttmEEcjDzjPAzfJ0kV2FtqThjx4nl/MByMcL8nGW32M5zrqj9NvacKg9eL199XPo5rvLUmGH+CLu+ZcCnhS6/XeeV84jaMT4fo8i5Lvwm1BKvpXLmn+Q4iljP3DOtEHfARWPIQphwJEXIyoN9Ay/ogxC3+4j89+aIqyWIaO2wOA884Hs3RWIzhIf2HCOaupmTLtj/tSC+jWJfJPF5nBO7/4tOU1nxHqegPM4K2v3VrXZaR5rjO4xggdxjDmFndp3750bCQZJ1O56vreM1ztj3kRtR/po1aN9aOvA7YrvO4BeHdow2Q6Ov+jXhQK98z3cSUgTMRp0QwX6Oq1xfkvIxTu6RM/71VHHayAtIal1iVcx6PyheF2p3SOggvpaYrH4gDo1kx7lHzscex8N7/2s+afatBOsiu2+CBgns3RvxoeUlj/FtSfbywTtOMHDRYMvS4mPYaznwRLabGRig+s6pmw6gFXzIzg6a6v/f1c+VWG5mYGDHYRxX0NDa5nL4QYXq/Uyhr5k+FdY7Gr4MZmJt5wmSgXdZx1liM4PmmDQJF6fsgTtgD+RWLKcWVf16Yyzl5Qw42Ogs0Zdcfgewudp4iyjpN9f/nwXnmYucofzuuM9NiJ2VBv5/NmKCtqR8hsTOB72EiFlTx/ivArCzUmcJF8O0QWNbg8zHgg665TRYFEZ8ijMPVSkuhZnYAIAsdXw27TlplG5TtcURXwF8+P590efBXMP/sA1GnOdNKqRfPxSCXXtQClYCj77JoxoXgVS+P7hwyamdNkLgppdEwPnGjahjeY6h5daA5/e3y+XWPxYnpDeup74XzTwYtFjwVjyfl97nldEHKlcJL7HtBa1KZRFu9xTJFtLR9aKATUzcv0LQpEKXGAe121uQlFfKmlXkHVlFvOzBsOwAHVn/8skSjm/Nmii0aVB8FWkA31kBxmu64nOJFNGvjkCjtFVSH1OVYcDpcu+CoLtf8u8NZVLeu+pRBXV2XLHtDz/88MMPP/zwww8//PD/R119GNkKmoGh6g+Iv9TN0ExBg5g0Nn0d8Ie7LF942nfXfOI/ElWlVUBDLOKPCCs/OEFxw3M863OKEApGrzRo6Ms/SLcTVVUp2wIoQq0R1ia5ZIo6/8OsxAvxRHhOzz/a346OIjTtOLKk6GOMFHFme46ztL8dDUWowyJhYaAow19MrswU/UllZ+EleLWV9NHP0238we8WobS8r9o2uNHHywtBpLxcLtmCcQOEEyKYQKIovY9PVuK0guQy3tfTh2lotshoEiTJsjn1m2ei2WR85SswR3AlisZ385G6eDzIyTNXEZmkx3x63kv8Nt5EMD/iYFmoTikqMK+TmygqPPEkXMjoqSrsbzrNIBmushhpMFTKhpWNDFvOEfyzH+WfX/cVEkdcje03Xd8HBE/f3EhoPDVgv93Hrj88z3uMeC24Z6To9NfwN0wUZRi9xtZo8+yHwm8QaseHfcqfA5QatGiq9034mISEfgm1r2kk1EDSTNE4mFC2MC4o+OxYTBBsSr3WfHWPqwKy5uF4iWuXlCUsNOtofH5s7rGgqOSfmAxbUXknryNO0QVPqd8OgdzwxZK8YFO5/iTrnlOCiExiPELrI6harl/ueJX61VNEhzv/U0oGUbSw0EdAUTiXEvMCkSeeyjx7bNiGMeqjF53wkaH4oKd4rnYZhdUyEjwOXQIErAqMDRTlmGVVFRQFfHwUFPFn/yjvwEhXaCq4CrGh5O+F+OEXnqgzGAdAOpFz+veJirJyvFhA71apXwNFfz5jG5mic85aeyA4h1FFUSoYvOLrQrZKGgPbjXPU+r5PTQb+vnHF+gINT7fFgZBPULSavg2SiaJxaTcyRSdfnHDA69xUFFHmZ8TzwYvGMX/wbj1MlUpiHcWjMK74L5N0paBTcqXHtpBXVQUvWMwFXtdhmSii/y8l6T0yuNf4Y2sNMlDE2WG8xrL0V+zJJz/ojb9Z1hEueXyEsssEptvGN/cgS5+Y3fR0oyiiYlRQdB4NSJ7PrU0URSAjG27JXMe5Kud+6cuTZ4pyLr0DvK7Bv+IpG58BRQlel5cbKaJS/xJzingT/LqeIrog4vlNMbKs2pA0rA9lZDe8LgIq8VTLEPCJRGtGNlM0doeIOarRdHA5Ma0jKlezvx6JS81a7m5TdIJJivC6t+U0qmdRzl6ty9KJaq1OFNFFUXPZ0008kGJOUSbpl5kippLmdvs3Tt+kSExSgCW34gmkckXrc1nHdtOI52L+7HvWb6YITiplFE08QD+qCRTJKnCmiD5+x1NdyLj+5v0Kid4MkiniK4laOM3lGp6vRecxUqjJk4Tn54AbMTej7Yf68bcka1hnRmOtuWdZtnjTTJF0ok00jso9CuMLwULWhaMf1Y0PF0uK8mUdM5WRQRqH8Sl7GfwpmSJqOdHhOw+Q7KX/fXBSMROer2JiwBojfg8Mb4MVtrekrAlCk83DW+trzC2PDK9s7/kZSRyUcDIR65eeoopIH8M9EQLr+zKABmxv8MYT+5v0f08y1ZGlPpzJFPDns4qer7V4U0fI5OVcSEO4fCyZc9KUfz0RG+JOXTs+TJn9QWYRcxufkZdr1IFbQ4IdNQ/hKc9lDoqXf8I9SZ7vC01c9z74F+X5ad+RtD/88F38A0urBoALMELcAAAAAElFTkSuQmCC;" parent="1" vertex="1">
          <mxGeometry x="151" y="146.95" width="89" height="103.05" as="geometry" />
        </mxCell>
        <mxCell id="bWRVc3cfwopEE2IEMO9N-4" value="" style="shape=image;verticalLabelPosition=bottom;labelBackgroundColor=default;verticalAlign=top;aspect=fixed;imageAspect=0;image=https://images.g2crowd.com/uploads/product/image/large_detail/large_detail_f0b606abb6d19089febc9faeeba5bc05/nodejs-development-services.png;" parent="1" vertex="1">
          <mxGeometry x="500" y="179.99999999999997" width="80" height="80" as="geometry" />
        </mxCell>
        <mxCell id="bWRVc3cfwopEE2IEMO9N-5" value="" style="shape=image;verticalLabelPosition=bottom;labelBackgroundColor=default;verticalAlign=top;aspect=fixed;imageAspect=0;image=data:image/jpeg,/9j/4AAQSkZJRgABAQAAAQABAAD/2wCEAAoHCBQTBxMUFBUYGBgYGBscGhkbGRgUHhsdGRsbGxkZGhsbJC0kHR4pIxwbJjgmLC4wNDQ2GyQ5PzkyPi0yNDABCwsLEA8QHRISHTIlJCkwMjIyMDYyMjI0NDIyMjIyMjIyMjIyMjQyMjIyMjUyMjIyMjIyMjI0MjIyMjIyMjIyMv/AABEIAJoBRgMBIgACEQEDEQH/xAAcAAEAAQUBAQAAAAAAAAAAAAAABwEDBAUGAgj/xABHEAACAQMBBAUGCQwBAwUAAAABAgADBBESBQYhMQdBUWFxExQiMoGRQlJTcnOSobGyFRYjMzU2VGJ0grPRgyVD0iZEosLw/8QAGQEBAAMBAQAAAAAAAAAAAAAAAAIDBAEF/8QALBEAAgIABAMGBwEAAAAAAAAAAAECEQMSITETQYEEBUJRUpEiIzIzQ2Fxsf/aAAwDAQACEQMRAD8AmaIlqrVVaZZmCgcySFA8SeUAuRNQ28loP/cU/rZ+6Pzms/4in75PhT9L9iviw9S9zbxNR+c1n/EU/fH5zWf8RT98cKfpfsc4sPUvc28TUfnNZ/xFP3x+c1n/ABFP3xwp+l+w4sPUvc28TUfnNZ/xFP3x+c1n/EU/fHCn6X7Diw9S9zbxNR+c1n/EU/fKfnNZ/wART98cKfpfsOLD1L3NxKZmmbeezCkm4pgDr1SOd6ek2o9Rqdl+jQcPKsoLt81W4KveRn5s6sKV01QeNBK7sl+VnzQdt3Zq6jc19XxvK1M+/VJG3A39qVbpLW7bUzHFOrgAk9SPjhk8g3XyOSczssFxVkYY8ZOtiUolJWVF4iIgCIiAIiIAiIgCIiAIiIAiIgCIiAIiIAiIgCIiAIiIB5MjvaVRr/blRGYihQbSFBxqYEgk+JB49Qx2kyRJG2xGxc3f0zfeZr7JH6pc1sYO3N1GPJvUzhse3A/VJ9p++V/JFv8AJJ7pka41zXml5sw5Y+Rj/ki3+ST3R+SLf5JPdMjXGuM0vNjLHyMf8kW/ySe6PyRb/JJ7pka41xml5sZY+Rj/AJIt/kk90fki3+ST3TI1xrjNLzYyx8jH/JFv8knug7Jtsfqk90yNc47fvbvk7fzamfScZcjqQ/B8W+7xhyfmzqjF8jm96dq06t2aduirSQ41AeufjfN7B7ezGgibXd7Y5urwgtopU1L1qp5JTXiT844IA6/AGVSlzZdGPJIw6NqTbtUbginTnrd8Z0J2nGCTyUEZ4lQ1hXIcMpKkHII4EEcQQe6Z22doCtcjya6KKDRRp/EQHOT2uxyzHjknnwE184v2ddJ6H0vsO+842Pb1jwNSmjkdhZQSPYczYTQ7kKRujZ5+RQ+wjI+wzfTA9z1I7FYiJw6IiIAiIgCIiAIiIAiIgCIiAIiIAiIgCIiAIiIAiIgHk8pGWyWxc3X0zfeZJrcpFuzmxdXP0zfeZu7F4uh53b949Tb6o1SxqjVNdGGy/qjVLGqNUULL+qNUsao1RQsv6o1SxqjVFCym0b9aFk9R+SDOO08go7ycD2yI7u5erdPUc5ZyST49Q7hyHhOn362lqqpQU8F9N/nEeiPYOP8AcJyMqm9S6C0LltbvUuESmpZ3YKqjmSTgCdlvcyWGyKezKTAsdNS6cfDc4Kp80cGx2BO0zN3CsUtNjVtrVxkIpWgp4aj6pYd7MdAPzuozg726etd1KtQ6nqMWY97HJx2DsHUJR9Uv0v8ATTWWP7f+Fie6VJnqqiDLMQqjtLHAHvM8TrejPZXnG9VNiMpQBqN2ZHCmPHUQ39hk5ulZXCNySJysLYUrKnSX1aaKg8FUKPumTETzz1BERAEREAREQBERAEREAREQBERAEREAREQBERAEREAREQDyeUimybF3c/Sv+IyVjykS27YvLj6V/wARm/sPi6Hm94eHqbDVGqY+uNc3UedZkao1TH1xrihZkao1TH1xrihZkap4rXASizseCgsfADJlrXNJvbd6Nl6BzdgPYPSP3Ae2clorJR1dHGXdw1W5d25sxJ7s9XgOXsmXsDZL3e2KVumRrb0m+Kg4u3sAPicDrmukn9HNsllu5c7TrDmrKnVlEOMDvd8L/aO2YcSVI34cbf6MHpT2oi1KOz6Po07dVLKOWrThF/tU5/u7pH0vXly9W7eo5yzszse9jk47uMszsI5VRHElmdiTj0W7E823dFRhh7ghz2hMfo19xLf3yLdy9gm+28lMj9Gvp1T/ACKfV8WOF9pPVPoYDAwOAEpx5+E09mw/Ez3ERMxrEREAREQBERAEREAREQBERAEREAREQBERAEREAREQBERAPJkQI2L24+lf8RkvmQ47Yvq/0j/iM9Hu/wAXQ8zvHaPUytca5j6o1T0aPLsyNca5j6o1RQsyNca5j6o1RQsyNc5He6vqvUXqVc+1jx+wCdMX4TjtqXQr09fwlYr4oxJQ+ziPaO2U4300XYK1sxNn2T17+nRT1qjqg68ajjJ7hzPcJInSlepQ2dbbOpcFVVdh/KnoUwe3JDMe9QeuYPRFswVNuVbhh6NBMKT1NUyAc9yh/rCcrvRtXzvb9evn0WchPmL6KeGVAPiTPPfxTryPSXw4d82aqJ0Wzt06jqr3NSnaUzyauwR2H8lMkM3txnqJkjblbsbMKeWoarhqb4FWoHC6hg+gpAU4OPSwcds7LFUSMMFy/RtOj7dzzHYg1jFarh6naOHop/aCfaTOrmo27t+3srcPXfBY4RVGp3PYijieY48hkZPGan84toONVLZTlDxBqXFKgx8UOSp8ZkdvU3KoqkdbE4ypv4lCqEvravbMeTFRWQ9oV09b2Cbzd3baXtga1MME1uilubBDgNjqB54PGccWjqkm6NxEpKzhIpKzndu74Wdm+mrUy/yaDyj8eQIHBSf5iJgU96L2qoahsuqUPI1atO2P1GBM7lZHMjsInIvvPeUlLXGzKyqOZo1Kd0fHSuDNhsLeu0vPRo1Rr66bDQ4xz9E+tjtXIhphSRv4iY127rbMaaB3AJVS2gMeoFsHT44M4SMiJHW29/7qyrqlxs/QWBKnzgMrAc8MKeOGRw5jI7Z62Fv7dXtZlt9nhtGNTG4CKuc4yTT68HgMnhJ8N1ZXxFdcyRIiJAsEREAREQBERAEREAREQBERAPJkL12xf1vpH/EZNBkJ3jYv630j/iM9Lu7eXQ8vvPaPU96o1TH1RqnqUeRZkao1TH1RqihZkao1TH1RqihYvrsU7YsRkZAx25IB+zM5K7TRcOqnK9R7VOGX7MTf7YUtYNj4JDewc/vz7JzfpOUUDLeqo7cn0R7zj3TH2h60bezq1ZJeyn8x6KatX1alyWC9R/SHyakeCKXEje3uXpHNM6W+MODD5rc18RgyQOlWsKNtY2KH0aVMMR4DydM+5anvke29B6lwtOmrO7HCqoySewCYcPZt8zdivVRXI2OwNj1L/bKUkJyx1O59LSoI1M3aeOB2kgdc+htl2FO3sEo0hpRBpUfeSesk5JPWSZo9x9112fsvDYNaphqrjt6kX+VcnxJJ68DqMcJnxJ5nS2NWFh5Vb3Iq3PuhtDpCubir6XklbyCniFUOFVgO0Ak+LkyVJ877K2hU2XvSzBcmk703U8NaasEZ78Bge0A8pOuw9t0Ly0FSg4YfCHJkPxXXqP38xkcZ3FjWvI5gzTtPcubZ2VTutnPRqrlWHtB6mXsYHiJz3RjbGlu41JvWp3FZGx2o2k/aJ2M8hQOQHE59pld6UW5VdnqRj0i78tTrG0tGIccKtReak/AQj4Xaw5chxzjtN7tr+Z7vVq49ZVwnX6bHSnDrAJye4GQ70dbP853vpl/SFPVWfPEsVI0knrOtlPslmHFU5PkVYs3ait2SLuHuYtpQWvXUNcsNRLel5PPwV/m48W7yBw59vEStybdstjFJUJwe/wBuYLig11bLpuU9P0PRNTTx6v8AuD4Lc+o9RHeREZNO0JRTVEb9He/JuHW1uWzVx+jqcvKAfBb+fHI9YHb60kT5+36sDab4VvJ5UFlq0yOBUt6WR2YcNjwEmrdjavnewaFfhl19MDqdSVcDu1A+yWYkFpJbMrwpttxe6ON6Z1/6Vanr8qw96H/QlzoYUfkC4PWbgj2CnTx95njpo/Y9t9MfwNL3Qz+7tf8AqW/x0pL8RH83QkOIiUGgpNFtDeq0obVW2q1QtRscCrYGr1dT40rnvM3s5TeTce1vtoJWqF1cAK2ggB1HINkHj1ZGDjwGOquZGV1odXKygHCJwkJWc5sXeDzneG+oLpNO28moYZyzNr15OcYBXHLqM6KGqOJ2ViIg6IiIAiIgHk8pB+0D/wBQq/SP+IycDykH7Q/aFX6R/wARnp927y6Hld5/THqY+YzET1zxxmMxEAZjMRAKMMqQeR4e+a/c+y8pvha0z1Vgx/4s1D+CbGbHo7tv/W9R9OdFF3Hi2heHedbTD25VHMbewazynnauya219/LpaZxTpsEaoRlUWmNBAHwmLByB18eQ4yUN3t3Lext9NFPSI9J24u/zm7O4YA7Jd3e2Stps1aYwWJL1H+PUbi7nxPLsAA6ptZ40pN6LY9yOGk7e5WIiQLCPOkHcc3dQ3NsB5bGHQ4UVABgEE8A4HDjwIxxGJFNpd3FntEsjPRqocMMaSP5XVuBHcRifTAmi3j3Wtr6jiqmHAwtRfRdfb1juORLoYtKpbGfEwbdx0ZzW6PSNTuHWjdAUqp4Kw4U3PUOPqMew8D25IEkKfO29W6tewuQKnpU2OEqqMK38pHwWx8E9+CcGSH0UbxvXtntarFnpKGRick084Knt0kgZ7GA6onBVmjsMPEd5ZblemaqRsGgo5NXBP9qPw+37JpuhdAdqXTdYpoB4MxJ/CJ0XS9Zl91lcf9qqrH5rBqf3us5bobuQu3q9M/Do6h/Yy8Pc590lH7TIy+8iZoiJnNQiIgEMdMlPG8NFu2gB9V3/APKdP0O1S27FRTyW4cDwKU2+9j75yfTDcat50QfAoJnuLO5+7TO26KbI090kYjBqu9T2cEHvCA+2Xy+2jLD7rNZ00fse2+mP4Gl7oZ/dyv8A1Lf4qUs9NH7Itfpj+Bpf6Gv3brf1Lf46UfiJfm6EhRESg0GJtCq6WbNSpeVcD0U1CnqPZqbgvjI43t3t2taqhe3o0VfIVgfLnI4ldWQAcdq8e/BkoyPOmb93aH9Sv+OrJ4dZkmivFvK2mdDuLtCrc7rUK1Z9btr1NhVzpqOo4KABwAHLqmv3zqbU8zrm3NvToojMX11DVKquptI0aUPBhzJ5EES/0ZfuRa/8n+apNrvT+7N7/T1v8bQ9JdQtYL+ETdGnn3lLrzHzfOKflPL+U7amjRo/uznukp7v/lDXU8983xhdHkfKZzx169fV6uMd84ToS/W33hQ++tJXksV/E0RwV8KKE4E4StvLeX15UpbLRBTpnS1zUzoLdlMAHPbnDeABBNzpV2u1vu35NDhq7eTJ6wmCX94wvgxm33Nsktt1bZeC/o1dySB6TjW5JPYTjwAkUqVk27dIjnbG8e2tn36pcVVbUMqSlM03A56SqK3DrHAjI7RJJ3Q28L/YaVtOlslXXmAy4zjuIIPtxOK3wZtsbUo29kA6USxqXH/bUtp4BvhYAzgZzkY4Amd7u7sWnZbKShTyQMlmPNmPrMfHs6gAOqSk1lWlMhBSzPW0beIiVFx5PKQftH9oVvpKn4zJx6pGG+e7707969NS1NyWbAJ0MeLav5ScnPLjjszv7vxIxm0+Z5veOHKUE1yOViU1CNQnt2jw6ZWJTUI1CLFMrEpqEahFimVnVdF9PO37xuylTH1mY/8A1nKahOy6LP2nffMt/vrTF25/Jf8ATf3evnL+MkmIieEe+JbqNimT2AmXJbrfqG+afugGp3V2qbvd63uGxqqIC2nIAcEq4AJJABB65uZDfR3t64srAeWoVms3JZaqozimeTNwHqHHHvBIzxknWm8VnUo60uqLL9Igx4gnIPcZOUWmQjJNHveDZqXWxq1F8YZTg/FYDKsO8HB9kiToeQtvSzDOFt31Hq4ugA//AHZO03o3yptbta2J85uaoKr5L0wgbgXLj0eGe3A5nAmduDut5hss68GtUwXI4hQPVpqesDJ49ZJ6sSSdRafMhJZpprkdFtCzSvZVKTjK1FZWHcwwcd8gi3FTY2+VPygJ8m3EgcHpPlSyjrypJx1MuOqfQM0O9W7NHaFjoqDSy5NOoBlkJ5+KnhlevHUQCOQnWj2Z3EhdNbo3FGqr0VdSGVgCrDiCCMgg9hEuyMNjbQvNjZoXlJ6tqCdFamC4pjrz2L16TgjjjPKdtYbz2VamGp3VI5GcF1RvajYYe0SLi1tsSjJPfRm6lm4rpTt2qOwVUUszHgAAMkn2TU7Q3ssaFMtUuqXDqVw7fVTJ+ycXtevfbaIpW9J7e0yC1SqChqYOQdPNl6wBkEgZI6kYt76ISkltqzjkoVNs74uUBAqPqZvk6S4UE9WQoUd7GT1aW60rRKSDSqKqqOwKMAe4TVbs7u0bCx8nSGWbBdz6zkdvYBxwvIZ7SSdy7AISTgAZJ7hOznm0WyI4cMur3ZHXTR+yLX6Y/gaX+hr92q39Q3+OlOa6Ut57a6FCjb1FqCmzOzL6uSAFCn4XDUSRw5d+PPRrvjb2dvUoXDFFd9auAXAJVVZWC5I9VSDg9ecSynw6Kr+bZNETmTv5s3+KT3N/qaLeDpOtEsnFoxq1SCFOlkVCfhMXAJxzwAc46ucqUG+Roc0uZIcjvpm/d+3/AKgf4qk6nc6np3UswSSTQpsSTk5ZAxyfbI86Ut57S62dQpW9ZKrLU1tpOQAFZeJ5ZJbl3SWGviIYj+BnZ9GX7kWv/J/lqTab1/uve/01b/G043o53ts6e7tG2q10SojOulsjVqqMy6TyPrAY55E7nb1sauxLmmoyz0aigd7IwH2mckqlr5iP0KvIjjoT/W33hQ++tJXkFdHe89GwvLgVwwWoEGVXJVqZfgy8+Os+BA9nf0dqXO1CFtlqW1r8O4b0KlQfFoAZ0g/KZPvGDLFi8zfIjgyWVLmaLprpE07Jvgg1VPiwpkfYre6b7d7dq1udiW1asatxqpowFWq9RFOkAqKYITgcj1eqbLfXYHn2wHpKQKikPTJ5a1BGD3EErnqznqkZ7rb41tlM1rc0XNNWJ0H0Xp5OTpzwZSeOOA4kg8Z1XKNLdHJVGdvZk029BEohEUKqjAVQFAHYAOAjyyCuE1DWVLBcjJVSAWA54BYDPeJHN70sUvJ4t7aozngA5VBk8uCFifDhntm83J2Xca6l9e585rgKFIx5KkDlaYX4OTxI7hn0tUrcWlbLVNN0jsYiJEmJSViAWDaoTxRfqiU8zp/ET6q/6l+J22RyoseZ0/iJ9Vf9R5nT+In1V/1L8RmZ3Kix5nT+In1V/wBR5nT+In1V/wBS/EZmMqLHmdP4ifVX/U1FvQCb31CAFFS1TAAA40qtTUeH0q/ZN9NRtGkw21aVVBP6yk+BnStRRUDHu1UUX++LZyjcREThISkrEAtogVAAAAOQAwB4Ca+82BaVqmqrbUXb4zU0Y+8jM2cQDEstnUaCaaNKnTB5hEVAfHSBmZkRAEREApOH343Gp3du1WgipcKMjACipj4LdWrsb2Hhy7iJ2MmnaIyimqZ8z7MvqtntZaiDS9NiCjDsOGR1PtB6x3ET6B3c25SvdlrWpHnwZTzRhzVv99YIPXOd363FW9zXoYS4A454LUA5BscmHU3sPURGezL+82PtjLIyE8HpuCEqKOwjgcZ4OucZ6wSDfKsRWtzNG8OVPY+hZScnsff+wuKOWqrRbrSqRTx4MfRYeB8QJu9nbctris6UKyVCgBbQwcAHIHEcOrtlDi1ujSpJ7MzPNU+Iv1RHmqfEX6ol+JwkWPNU+Iv1RHmqfEX6ol+IB5AwMCVlYgFJWIgGvqbItmufKNb0S/PWaaFvHURmZ8RAKzEvNn0ayAVaaVAOQdFcf/IGZcQDCs9l0KP6qjTp/Mpon4QJmxEAREQBERAEREAREQBERAEREAREQBERAEREAREQBERAEREAS1Woq6FWUMDzDAMPcZdiAaf82bHVnzO2z2+Rp/8AjNlQoIlMKihVHJVAUD2CXoizlCIiDoiIgCIiAIiIAiIgCIiAIiIAiIgH/9k=;" parent="1" vertex="1">
          <mxGeometry x="270" y="189.97" width="106" height="50.07" as="geometry" />
        </mxCell>
        <mxCell id="bWRVc3cfwopEE2IEMO9N-7" value="" style="shape=image;verticalLabelPosition=bottom;labelBackgroundColor=default;verticalAlign=top;aspect=fixed;imageAspect=0;image=https://www.silver-peak.com/sites/default/files/partners/partner-logos-cloud-google-cloud.png;" parent="1" vertex="1">
          <mxGeometry x="560" y="311.74" width="100" height="100" as="geometry" />
        </mxCell>
        <mxCell id="bWRVc3cfwopEE2IEMO9N-8" value="" style="shape=curlyBracket;whiteSpace=wrap;html=1;rounded=1;labelPosition=left;verticalLabelPosition=middle;align=right;verticalAlign=middle;rotation=-90;" parent="1" vertex="1">
          <mxGeometry x="240" y="170" width="20" height="220" as="geometry" />
        </mxCell>
        <mxCell id="bWRVc3cfwopEE2IEMO9N-9" value="LOCAL" style="text;html=1;strokeColor=none;fillColor=none;align=center;verticalAlign=middle;whiteSpace=wrap;rounded=0;" parent="1" vertex="1">
          <mxGeometry x="220" y="300" width="60" height="30" as="geometry" />
        </mxCell>
        <mxCell id="bWRVc3cfwopEE2IEMO9N-10" value="" style="shape=curlyBracket;whiteSpace=wrap;html=1;rounded=1;labelPosition=left;verticalLabelPosition=middle;align=right;verticalAlign=middle;rotation=-90;" parent="1" vertex="1">
          <mxGeometry x="590" y="170" width="20" height="220" as="geometry" />
        </mxCell>
        <mxCell id="bWRVc3cfwopEE2IEMO9N-11" value="REMOTO" style="text;html=1;strokeColor=none;fillColor=none;align=center;verticalAlign=middle;whiteSpace=wrap;rounded=0;" parent="1" vertex="1">
          <mxGeometry x="570" y="300" width="60" height="30" as="geometry" />
        </mxCell>
        <mxCell id="bWRVc3cfwopEE2IEMO9N-14" value="" style="edgeStyle=orthogonalEdgeStyle;rounded=0;orthogonalLoop=1;jettySize=auto;html=1;" parent="1" source="bWRVc3cfwopEE2IEMO9N-12" target="bWRVc3cfwopEE2IEMO9N-13" edge="1">
          <mxGeometry relative="1" as="geometry" />
        </mxCell>
        <mxCell id="bWRVc3cfwopEE2IEMO9N-16" value="" style="edgeStyle=orthogonalEdgeStyle;rounded=0;orthogonalLoop=1;jettySize=auto;html=1;" parent="1" source="bWRVc3cfwopEE2IEMO9N-12" target="bWRVc3cfwopEE2IEMO9N-15" edge="1">
          <mxGeometry relative="1" as="geometry" />
        </mxCell>
        <mxCell id="bWRVc3cfwopEE2IEMO9N-12" value="APP" style="rounded=1;whiteSpace=wrap;html=1;" parent="1" vertex="1">
          <mxGeometry x="240" y="550" width="120" height="60" as="geometry" />
        </mxCell>
        <mxCell id="bWRVc3cfwopEE2IEMO9N-13" value="Database" style="rounded=1;whiteSpace=wrap;html=1;" parent="1" vertex="1">
          <mxGeometry x="440" y="550" width="120" height="60" as="geometry" />
        </mxCell>
        <mxCell id="bWRVc3cfwopEE2IEMO9N-22" value="" style="edgeStyle=orthogonalEdgeStyle;rounded=0;orthogonalLoop=1;jettySize=auto;html=1;" parent="1" source="bWRVc3cfwopEE2IEMO9N-15" target="bWRVc3cfwopEE2IEMO9N-21" edge="1">
          <mxGeometry relative="1" as="geometry" />
        </mxCell>
        <mxCell id="bWRVc3cfwopEE2IEMO9N-15" value="Service" style="whiteSpace=wrap;html=1;rounded=1;" parent="1" vertex="1">
          <mxGeometry x="240" y="690" width="120" height="60" as="geometry" />
        </mxCell>
        <mxCell id="bWRVc3cfwopEE2IEMO9N-17" value="" style="shape=image;verticalLabelPosition=bottom;labelBackgroundColor=default;verticalAlign=top;aspect=fixed;imageAspect=0;image=data:image/png,iVBORw0KGgoAAAANSUhEUgAAAMgAAADICAMAAACahl6sAAAAt1BMVEX6/Pz/zDJ1dXX/zC4AAAD2hBH/phD+qBb+/v68vb19fn7+yzbzhQ87Ozv9ohL+zjF2dXnwfA/p6+v7qRH4nhLKzMyNjY1zd3Pb3NybnZz8zigQEBD60D1XWFh2dm32mhP0y3H35LL49Oitrq4fICD26cv4wED38Nz1uD7z0Y/z2qfyv1/jfxN5c3P4kxLPrk33qiSnk1fzt0v4ykvunRvmvUj44Zn2sTCLglp/d2HwwjTuqj30iykCp7o4AAAPqUlEQVR4nO2dCXuiSBOAFRMZICoLiwcmXsQx6mZC4mRM3O///66vqrobmuaQbBSS57E2YwykoV/q7CNuo3GRi3xFWb7MlnX34RSy2evhflV3L04goQ6yXdTdjU/LStddNwzndffj07IkjegPdffj07IOdReVsqm7I5+VLWkk1F++u5dsdSbhuu6efE4WDxxE339vlSxDV5DM6u7Lp2Qeg4TfOiuu9UjCWd2d+YysdTcm+c5eMos14urbunvzCflXAmmH37cKXoQRRxu+vq9K5q5kWfDv2xYqa9lFoFD5tipZt/UkynctVKSg1aYq+LvWjluIVbJSdD3lJYvNn6+f8ld7Fq4kUWvH5Yve3n/58SMOD109KYqX4Hgl/PKV8VxPS3JGBYrKdtt1v3oMWKcsS1fK+Re9q+vd9v6L53zwdVcBabflcp4SJkazWW19LCXk664gIIF3Ulbcwtk22tYXH6yEGSDwY2RHmzCEA229HXa/ds4PJR8RHG477vRD2227oe52dfdLV8ZLPRMkUsmGjqKzt48M6Zf1xue5LpEIF2lD7cjmHRd78I4uUHQxchXMqv7Z3e5qzZlYabVDXQWBERZ1a6MjCL2gnnK9ZL6zQOqMBg/Q67aqEbImrB1XexePuPSFYTnnoc8tH/+rUyX7RLySBcv5dagcfMm8yPzWt3qW5f+puPOSLPQ8kG7338UidJMHXTfrof+xej388neV9z+SVR5It9udzmZtVz2+T1/jD3hHs9kDpdxWDyBkkw/ye/p7CulDPoiZMzVYmaOb95pgW81mfd4+ywHpdv/+e3p9nQbUH5TOoj4s3weSZs+qz9szQXQCmf66ufml4OHJZDk/Jy9vWT6oxLfq8/aX1COPOKY319c33eiQEDcxq/oH7AkQmkx6s7o4GvsMEPJ0VAiATJMnMJt0JS+Z30YQJLO6OBZqnpA85IakK2uDgcTjxz/k4ZLs6qq3llkZBEIVKgT0ATpJeQnUKkIloA8rCXJbV9iaZ+lDZwphIDddFcRtc5Vg3G36CdOqLWyt8ywLPYQ41MBF52fEcZviaDbrmqHY5nFMGcc1eYmikzZ5ydxq9TDiJmzLn9UEss+qFpmHIAZKWiVwfov1bjMtVk1FSmbQwiprKjBQJ6pK4PzvmRJ3awZZqUFL58nwJgZRAxdx7G57SrziGbGmsdWynVUtUnEigUBW1KXT0+lv6xaGURkctVVb68xxCCkkoZJukuMnpY9MjfTqqbZmrmpalNR/XbMcIqlEtqsD5kE1FXKQegaJixd5clH09O+prA2uEhfjbpc4fuLgA2qTLGfvNWd1gKzSJWPaQ66j2pFxHDJVIRTSPNQBsgzTAypWLSogrFBh8cpq5XKg1BK25qqLRMVJCmQa+Uev2ctXidXr1TGtukmNcbM8hH6+QQ8B/7htZYermKSO+DtzFZWI8VQShNWOzM+RowjEryX+quPc7JDFtHJD+QPnSsB8cjlafnNWA8geLUuXszbLIWkMfMF8XujnCNJr1TBJtwqTLiIUkratm+u//voH9XEUpNmyqgdZhmz2OuEh1ykQ9BHg2OFs4hGOHoD41YOsk0FLDHAzfJ300WpmJnNFLL/6+DtLgUwzPITZ1QPmjxIcELeqD1vbBIg0UFcEOahILEHSajVnlYO8xBg6n5PLClnE0SO7KgBpoRBI5dUWX42SQ29OvHoozIESCPp69WFrGbptKWJlKETE3dvSIART9WzjxtW7uuIhWfHqITWfWAQCiaTqsLVJ5PSsajHSx3EOAWJZrcqrrTUuQhdWiyx/4HpUaY1AHmnOKgbZKiBZgRc4aJnzuE4YB674VD7b+EI7A/JDlsiDJZ2Dk1h+67Zab19Js4ypapFGuywPfhjEqtjb5+0oZqGr/5JByMpKxqskCCQSq+JJOlpR0GnqTa0WRZ1I6wYfB2lVG7ZmSKF3s0KWGH/gaPAYRwoEvioGwc0ALrOsqVifkvz8JysTP2JaNCBpVhy2Fi9xuZgeTxHHkToRT/o+qaB5eH19en5+fnuDl6enSrcMillGPbUcIvLgMVXQPgGgsXavz2+TwUAbaI+P2gBkMvKcykCWoRR6f6U4bsskcx+C7eH1+X0weLSJQNPwm2bbg0nfqIhlo8cc0zRHCTcHu0JlvE80W9MebXjR6OUROWzbNoNhFSDrHIVE9e7RuAu29fo8sR9BNHvAVcFUMhjY9gR+DCrQyjY5wI3qxOt/cDxYJu5ah6f3ycCeTCYIADRoWBpXyWBCiup7ZwfZy9WiFHl5vesXzmHh4oj1+oYEAzIncg+mDULh2gEZndu+QgGSWA5hefCYLqAK8a2nd62UnFkpKz1WSKJO3JUor6yWf3ga2OVANO2sJEsOEhUncn11THq+9TwZlOXQbOOMIGw9V1ZIPD4vMQ/3BNFqUprEPKNOaE5LrhajOvHoBG+zeXiaPNqD8io5p072eltZn+L66B2fTgQ/59H1C+gkVMt3UZcU14lQSPoQd23Kfh8A0fpnisK4m6YrZhz4eLBEnYg1un94Lu8dEsl5QJZuNy7fo/n2UnVi8+nxQ7oQch43WbvRcshH4i7ke2v3lq+Q/iif0TxL3TVzJYWw9SisS475eQtI8g0L/OCHE5gaek8G0OgcIFsxlXUT1SUl5hlgNOgf3ieZT93ESvfHD0Ax+tWpBMa5YkdsHHePc8CY1npiZa7aSQO0IcTxRpkkwelBVns+a33zwfnE3uH9MaURG0aDPxLS8EZmJSqZh5FCuD5KglhQm6hVFg3QfyjSGBoplDPk9020glt23YArxHqGolcGgfGs3H0ZKO0so5OrZC2SuuAoa1qHN9tOpJFAVoMTjDwZZagoxTx5et/iFBA5SFSXlAPB0VTCRSKQxo8hubhpNH4IGEe1rpPb1gszLD6fqG6nzgfBmJW0LQHieJEd4exJDsip49YiJMOK6sRe0QBdntlFFxlogxSIY3A18W/9YTbIqQuuFe19LzefmADZvakD3AADVFyYRG8oIqs+omkndpJVF0Jv6TpRBnlHjSRBpJQx8jDoCq0YTkojpx6+z0khwFFmm4wM8poC6feFJnggloKuGZhq7jyxt69JISXnE2WQp8lAyx7hYqmVmz8kBZ4WZPv7BtcHi3cnZoNkVoxQoyRT+zDIqFBOD7L690bUiR9axwEQbWLbKZ0ks2AhymlBlr+v//pZYn9iWlAjKkgQFYxUxkdMDS8D5cQg/wO7an1wAT3HtPpy3dsYeokf03XjaUE2FK/+m0ZUZw9kjJGZqOgb6fB7WpCXl1vcoPgfQNLhFxMij1W81/ZomFtrnTiPrCGht/6TRjAhalkgTiCFXFN4//kT4q7obyeKQLJKFLCpAPO5fKZPzpICOfkYcbE54Obwnt+y2Np46xgCE+tZsweDZPUrl1oyCjjL2YtGlNmhh7NU+GENLXWEmAvSfLJVH/GUNG6DNgL2LkgVjWeYfoAgPDuwjwYAjSgzKLkgNLBKjBBTyiBX556fmqU401T2cgvBCzlUh8kHoaGu2j35kTt8uNgYZhRc55lsJJRXLLjAVUpytG7VyQdFpJmIhpE6exbLYrLaHOgjG8qCWK/vdtFc/FAM4J2sma2zLiYuyFVYvdI7CoK2lTXTqIBkV/Lnsywmy/XBolE7rlb1CjFaTf/psWgZdIjpMa+IP+eaKEfZ0t4syPdHxPd9621g568dDBtgUzmn+xXs51hsdi3cI8OeehGIZUEFnK8Rz+vnUp5fISSzB8gpDCSfBCqB1uG5wLRyBoZVKYRkNfvJHL3Q2wH2tcjbc8WuZM8Tk/nWOgbS9Ft+wZpVgZwxh2QIJEgysHwW3Gl9eMYNc0V5sW4O9PoHq+lTUZzNQkdf37TCbJKW08/DH0dZ79huxYJY3Ht6mxTE4LSca7tAsSy3P4Gj6Rd4PAze1Xq+UB/n30eXLfOZVZzgIZv0y3t8PfoggQRpFWnEetlEKwnH9VEfB8r6kFaKYHugj3NKz1plyukXDj8oi9kO01+LvhiUT6Fst+Z/6DIcmUe3CNXmHrLAYLhFH4wgp5aD9L8gw2q9mOTse0xLymaLgy62ld9HHGuW/HRDJ2/aHcUeVVQnlhD0ekqQpBFrO0/9+VRiDCUnF7PKnf4lBBIkUCCLFTlHUpxh0Ee9SOuhtjmqZmP8h2Q1e4XR8OF1nf+JJ87QABhmZbbZD4yvR0GymG82Jf4AzPMMw/C+KMNFLnKRi1zkIhe5yEUucpGLXOQiFzmNGGYkRqMxMnNnkAtOFcoovgG0h9eS7T46x2VeRQK36Fxd5U32FZwqlE58A2gPr6VaGZ2P3uxrgpgfvxk0uTOYgOY9I/dDPT4B0uc3gEvDa8lG/wFEsloGgq+GSVfyTJNPkOO1nZEplvG9fnSG/CxahY1bZPWJgeDriLlcYJqBfEl87xhET+eHcNCL27JW0A9TBU2CsLviZcAGhg2H2YXGT/XH8MOY/mDz7io6493T2zHdTm6RBcJM64pucC/a0iV5yyt4b0Smzg92vIbcaoT9uLpPrqTEpjWUQeBXO+xNZ8z6RZfs3DNTN/EEHoGLwaF7PD52GskWEUg/sqwYhH5nOMa28FNAj4Zd0ohBHLrcPX9KolXAOzIeKiCxr8cgV3ea2RjBN6fh3KNyqIse3Y8Rsvcm3rVDj24MvUm0iEBiX5dAtLuAXaDh0WOGYw6/ZKRG6FzHEfeMWt3TSVDOXQmQO94HfBIjEdDwMTvshg08oXGQK81oDJ1Ui0KQETOWMbdTA4/dBY4TOyR8G/MHck+X5a0M3rv7ZABE6CgfSj7CjRJP3FFLYev8u2HejRk9c5FO31FbRCB3UT6MQTzWpXs8QfdjXtdhf1XFbsKULZ6YaCV6zOhkkCxnNzgIl44CEtzHavT4Mx97Sgv5kkIikEYjcmruDzx+0FNXQEwBkrShRIg+AsIzgEcHA/ErQ7QD0xBtPbPD+55oUQakE+cwiLSkZLRc1siTNNKXQe7ixFQKhFt8ZP7CR9DRtKitQWkjoNskWhwFET5C0F6Av+bdyz1I+QjHv4talQPpU9CAGDTmoYxFqjt6KHClMba9Y5GFhZ5Ei+MgzJewqTNi4TQOkQE7n4xa1GpM5pcRtXJBHJEVOg2eXHgegVuz+A/XwlzAEkBfaXEcxBN5RGMPqoNN7xoiqRBWIo9Qq9EVT2iJPV1FIFFi5akuwB8pDZPDjY0xZedOHL4TLY6DiKqAbJY7+53DCXl6ost5DbkVy+zj5GdCDA15RTWutcSBqNShg4HJd+5ACQRlEf9F/KUg3UK+pJC41hIHTHFJ3OERlWlwffbxVEqtxcQJeFV2kYtc5CIXuchFLnKRi1zkIjXK/wEmNrmvHAhWWAAAAABJRU5ErkJggg==;" parent="1" vertex="1">
          <mxGeometry x="620" y="180" width="70" height="70" as="geometry" />
        </mxCell>
        <mxCell id="bWRVc3cfwopEE2IEMO9N-23" style="edgeStyle=orthogonalEdgeStyle;rounded=0;orthogonalLoop=1;jettySize=auto;html=1;dashed=1;" parent="1" source="bWRVc3cfwopEE2IEMO9N-20" target="bWRVc3cfwopEE2IEMO9N-7" edge="1">
          <mxGeometry relative="1" as="geometry" />
        </mxCell>
        <mxCell id="bWRVc3cfwopEE2IEMO9N-20" value="" style="shape=image;verticalLabelPosition=bottom;labelBackgroundColor=default;verticalAlign=top;aspect=fixed;imageAspect=0;image=https://www.nicepng.com/png/detail/259-2592669_ios-android-icon-png-clip-art-free-ios.png;" parent="1" vertex="1">
          <mxGeometry x="178.5" y="330" width="143" height="63.48" as="geometry" />
        </mxCell>
        <mxCell id="bWRVc3cfwopEE2IEMO9N-21" value="Datase" style="whiteSpace=wrap;html=1;rounded=1;" parent="1" vertex="1">
          <mxGeometry x="440" y="690" width="120" height="60" as="geometry" />
        </mxCell>
        <mxCell id="bWRVc3cfwopEE2IEMO9N-26" value="" style="edgeStyle=orthogonalEdgeStyle;rounded=0;orthogonalLoop=1;jettySize=auto;html=1;" parent="1" source="bWRVc3cfwopEE2IEMO9N-24" target="bWRVc3cfwopEE2IEMO9N-25" edge="1">
          <mxGeometry relative="1" as="geometry" />
        </mxCell>
        <mxCell id="lBTAzKMEYhYNqTVkXOKm-6" value="" style="edgeStyle=orthogonalEdgeStyle;rounded=0;orthogonalLoop=1;jettySize=auto;html=1;" edge="1" parent="1" source="bWRVc3cfwopEE2IEMO9N-24" target="lBTAzKMEYhYNqTVkXOKm-5">
          <mxGeometry relative="1" as="geometry" />
        </mxCell>
        <mxCell id="bWRVc3cfwopEE2IEMO9N-24" value="Login" style="rounded=1;whiteSpace=wrap;html=1;" parent="1" vertex="1">
          <mxGeometry x="40" y="1070" width="120" height="60" as="geometry" />
        </mxCell>
        <mxCell id="bWRVc3cfwopEE2IEMO9N-28" value="" style="edgeStyle=orthogonalEdgeStyle;rounded=0;orthogonalLoop=1;jettySize=auto;html=1;" parent="1" source="bWRVc3cfwopEE2IEMO9N-25" target="bWRVc3cfwopEE2IEMO9N-27" edge="1">
          <mxGeometry relative="1" as="geometry" />
        </mxCell>
        <mxCell id="bWRVc3cfwopEE2IEMO9N-55" value="" style="edgeStyle=orthogonalEdgeStyle;rounded=0;orthogonalLoop=1;jettySize=auto;html=1;" parent="1" source="bWRVc3cfwopEE2IEMO9N-25" target="bWRVc3cfwopEE2IEMO9N-27" edge="1">
          <mxGeometry relative="1" as="geometry" />
        </mxCell>
        <mxCell id="bWRVc3cfwopEE2IEMO9N-57" value="" style="edgeStyle=orthogonalEdgeStyle;rounded=0;orthogonalLoop=1;jettySize=auto;html=1;" parent="1" source="bWRVc3cfwopEE2IEMO9N-25" target="bWRVc3cfwopEE2IEMO9N-27" edge="1">
          <mxGeometry relative="1" as="geometry" />
        </mxCell>
        <mxCell id="bWRVc3cfwopEE2IEMO9N-60" style="edgeStyle=orthogonalEdgeStyle;rounded=0;orthogonalLoop=1;jettySize=auto;html=1;exitX=1;exitY=0.5;exitDx=0;exitDy=0;" parent="1" source="bWRVc3cfwopEE2IEMO9N-25" target="bWRVc3cfwopEE2IEMO9N-61" edge="1">
          <mxGeometry relative="1" as="geometry">
            <mxPoint x="450" y="1130" as="targetPoint" />
            <Array as="points">
              <mxPoint x="410" y="1100" />
              <mxPoint x="410" y="1190" />
            </Array>
          </mxGeometry>
        </mxCell>
        <mxCell id="bWRVc3cfwopEE2IEMO9N-25" value="principal&amp;nbsp;&lt;br&gt;- Menu" style="whiteSpace=wrap;html=1;rounded=1;" parent="1" vertex="1">
          <mxGeometry x="240" y="1070" width="120" height="60" as="geometry" />
        </mxCell>
        <mxCell id="bWRVc3cfwopEE2IEMO9N-32" value="" style="edgeStyle=orthogonalEdgeStyle;rounded=0;orthogonalLoop=1;jettySize=auto;html=1;" parent="1" source="bWRVc3cfwopEE2IEMO9N-27" target="bWRVc3cfwopEE2IEMO9N-31" edge="1">
          <mxGeometry relative="1" as="geometry" />
        </mxCell>
        <mxCell id="bWRVc3cfwopEE2IEMO9N-64" value="Send" style="edgeLabel;html=1;align=center;verticalAlign=middle;resizable=0;points=[];" parent="bWRVc3cfwopEE2IEMO9N-32" vertex="1" connectable="0">
          <mxGeometry x="-0.12" y="-4" relative="1" as="geometry">
            <mxPoint as="offset" />
          </mxGeometry>
        </mxCell>
        <mxCell id="bWRVc3cfwopEE2IEMO9N-27" value="Form" style="whiteSpace=wrap;html=1;rounded=1;" parent="1" vertex="1">
          <mxGeometry x="460" y="1010" width="120" height="60" as="geometry" />
        </mxCell>
        <mxCell id="bWRVc3cfwopEE2IEMO9N-34" value="" style="edgeStyle=orthogonalEdgeStyle;rounded=0;orthogonalLoop=1;jettySize=auto;html=1;" parent="1" source="bWRVc3cfwopEE2IEMO9N-31" target="bWRVc3cfwopEE2IEMO9N-33" edge="1">
          <mxGeometry relative="1" as="geometry" />
        </mxCell>
        <mxCell id="bWRVc3cfwopEE2IEMO9N-50" value="Ok" style="edgeLabel;html=1;align=center;verticalAlign=middle;resizable=0;points=[];" parent="bWRVc3cfwopEE2IEMO9N-34" vertex="1" connectable="0">
          <mxGeometry x="-0.5333" y="-4" relative="1" as="geometry">
            <mxPoint as="offset" />
          </mxGeometry>
        </mxCell>
        <mxCell id="bWRVc3cfwopEE2IEMO9N-48" style="edgeStyle=orthogonalEdgeStyle;rounded=0;orthogonalLoop=1;jettySize=auto;html=1;entryX=0.5;entryY=1;entryDx=0;entryDy=0;" parent="1" source="bWRVc3cfwopEE2IEMO9N-31" target="bWRVc3cfwopEE2IEMO9N-27" edge="1">
          <mxGeometry relative="1" as="geometry">
            <Array as="points">
              <mxPoint x="720" y="1100" />
              <mxPoint x="520" y="1100" />
            </Array>
          </mxGeometry>
        </mxCell>
        <mxCell id="bWRVc3cfwopEE2IEMO9N-51" value="Error" style="edgeLabel;html=1;align=center;verticalAlign=middle;resizable=0;points=[];" parent="bWRVc3cfwopEE2IEMO9N-48" vertex="1" connectable="0">
          <mxGeometry x="-0.376" y="-3" relative="1" as="geometry">
            <mxPoint as="offset" />
          </mxGeometry>
        </mxCell>
        <mxCell id="bWRVc3cfwopEE2IEMO9N-31" value="" style="rhombus;whiteSpace=wrap;html=1;rounded=1;" parent="1" vertex="1">
          <mxGeometry x="680" y="1000" width="80" height="80" as="geometry" />
        </mxCell>
        <mxCell id="bWRVc3cfwopEE2IEMO9N-41" value="" style="edgeStyle=orthogonalEdgeStyle;rounded=0;orthogonalLoop=1;jettySize=auto;html=1;" parent="1" source="bWRVc3cfwopEE2IEMO9N-33" target="bWRVc3cfwopEE2IEMO9N-40" edge="1">
          <mxGeometry relative="1" as="geometry" />
        </mxCell>
        <mxCell id="bWRVc3cfwopEE2IEMO9N-33" value="Try to Sync (Optional autentication)" style="whiteSpace=wrap;html=1;rounded=1;" parent="1" vertex="1">
          <mxGeometry x="820" y="1010" width="120" height="60" as="geometry" />
        </mxCell>
        <mxCell id="bWRVc3cfwopEE2IEMO9N-43" value="" style="edgeStyle=orthogonalEdgeStyle;rounded=0;orthogonalLoop=1;jettySize=auto;html=1;" parent="1" source="bWRVc3cfwopEE2IEMO9N-40" target="bWRVc3cfwopEE2IEMO9N-42" edge="1">
          <mxGeometry relative="1" as="geometry" />
        </mxCell>
        <mxCell id="bWRVc3cfwopEE2IEMO9N-46" value="Ok" style="edgeLabel;html=1;align=center;verticalAlign=middle;resizable=0;points=[];" parent="bWRVc3cfwopEE2IEMO9N-43" vertex="1" connectable="0">
          <mxGeometry x="0.1" y="-1" relative="1" as="geometry">
            <mxPoint as="offset" />
          </mxGeometry>
        </mxCell>
        <mxCell id="bWRVc3cfwopEE2IEMO9N-45" value="" style="edgeStyle=orthogonalEdgeStyle;rounded=0;orthogonalLoop=1;jettySize=auto;html=1;" parent="1" source="bWRVc3cfwopEE2IEMO9N-40" target="bWRVc3cfwopEE2IEMO9N-44" edge="1">
          <mxGeometry relative="1" as="geometry" />
        </mxCell>
        <mxCell id="bWRVc3cfwopEE2IEMO9N-47" value="Error" style="edgeLabel;html=1;align=center;verticalAlign=middle;resizable=0;points=[];" parent="bWRVc3cfwopEE2IEMO9N-45" vertex="1" connectable="0">
          <mxGeometry x="-0.2" y="-2" relative="1" as="geometry">
            <mxPoint as="offset" />
          </mxGeometry>
        </mxCell>
        <mxCell id="bWRVc3cfwopEE2IEMO9N-40" value="" style="rhombus;whiteSpace=wrap;html=1;rounded=1;" parent="1" vertex="1">
          <mxGeometry x="1040" y="1000" width="80" height="80" as="geometry" />
        </mxCell>
        <mxCell id="bWRVc3cfwopEE2IEMO9N-42" value="Success page" style="rounded=1;whiteSpace=wrap;html=1;" parent="1" vertex="1">
          <mxGeometry x="1180" y="1010" width="120" height="60" as="geometry" />
        </mxCell>
        <mxCell id="bWRVc3cfwopEE2IEMO9N-71" value="" style="edgeStyle=orthogonalEdgeStyle;rounded=0;orthogonalLoop=1;jettySize=auto;html=1;" parent="1" source="bWRVc3cfwopEE2IEMO9N-44" target="bWRVc3cfwopEE2IEMO9N-70" edge="1">
          <mxGeometry relative="1" as="geometry" />
        </mxCell>
        <mxCell id="bWRVc3cfwopEE2IEMO9N-44" value="Save in Local" style="whiteSpace=wrap;html=1;rounded=1;" parent="1" vertex="1">
          <mxGeometry x="1020" y="1170" width="120" height="60" as="geometry" />
        </mxCell>
        <mxCell id="bWRVc3cfwopEE2IEMO9N-68" value="" style="edgeStyle=orthogonalEdgeStyle;rounded=0;orthogonalLoop=1;jettySize=auto;html=1;" parent="1" source="bWRVc3cfwopEE2IEMO9N-61" target="bWRVc3cfwopEE2IEMO9N-67" edge="1">
          <mxGeometry relative="1" as="geometry" />
        </mxCell>
        <mxCell id="bWRVc3cfwopEE2IEMO9N-74" value="" style="edgeStyle=orthogonalEdgeStyle;rounded=0;orthogonalLoop=1;jettySize=auto;html=1;" parent="1" source="bWRVc3cfwopEE2IEMO9N-61" target="bWRVc3cfwopEE2IEMO9N-73" edge="1">
          <mxGeometry relative="1" as="geometry" />
        </mxCell>
        <mxCell id="bWRVc3cfwopEE2IEMO9N-61" value="List registry local and sync" style="rounded=1;whiteSpace=wrap;html=1;" parent="1" vertex="1">
          <mxGeometry x="460" y="1160" width="120" height="60" as="geometry" />
        </mxCell>
        <mxCell id="bWRVc3cfwopEE2IEMO9N-69" style="edgeStyle=orthogonalEdgeStyle;rounded=0;orthogonalLoop=1;jettySize=auto;html=1;entryX=0;entryY=0.5;entryDx=0;entryDy=0;" parent="1" source="bWRVc3cfwopEE2IEMO9N-67" target="bWRVc3cfwopEE2IEMO9N-40" edge="1">
          <mxGeometry relative="1" as="geometry">
            <Array as="points">
              <mxPoint x="980" y="1190" />
              <mxPoint x="980" y="1070" />
              <mxPoint x="1040" y="1070" />
            </Array>
          </mxGeometry>
        </mxCell>
        <mxCell id="bWRVc3cfwopEE2IEMO9N-67" value="Sync (Optional autentication)" style="whiteSpace=wrap;html=1;rounded=1;" parent="1" vertex="1">
          <mxGeometry x="660" y="1160" width="120" height="60" as="geometry" />
        </mxCell>
        <mxCell id="bWRVc3cfwopEE2IEMO9N-77" style="edgeStyle=orthogonalEdgeStyle;rounded=0;orthogonalLoop=1;jettySize=auto;html=1;entryX=0.5;entryY=1;entryDx=0;entryDy=0;" parent="1" source="bWRVc3cfwopEE2IEMO9N-70" target="bWRVc3cfwopEE2IEMO9N-42" edge="1">
          <mxGeometry relative="1" as="geometry" />
        </mxCell>
        <mxCell id="bWRVc3cfwopEE2IEMO9N-70" value="Message &quot;try when internet is OK&quot;" style="whiteSpace=wrap;html=1;rounded=1;" parent="1" vertex="1">
          <mxGeometry x="1020" y="1310" width="120" height="60" as="geometry" />
        </mxCell>
        <mxCell id="bWRVc3cfwopEE2IEMO9N-73" value="Show all data of a registry&amp;nbsp;" style="whiteSpace=wrap;html=1;rounded=1;" parent="1" vertex="1">
          <mxGeometry x="460" y="1300" width="120" height="60" as="geometry" />
        </mxCell>
        <mxCell id="lBTAzKMEYhYNqTVkXOKm-1" value="" style="shape=curlyBracket;whiteSpace=wrap;html=1;rounded=1;labelPosition=left;verticalLabelPosition=middle;align=right;verticalAlign=middle;rotation=-90;" vertex="1" parent="1">
          <mxGeometry x="320" y="1160" width="20" height="580" as="geometry" />
        </mxCell>
        <mxCell id="lBTAzKMEYhYNqTVkXOKm-2" value="15 dÃ­as" style="text;html=1;strokeColor=none;fillColor=none;align=center;verticalAlign=middle;whiteSpace=wrap;rounded=0;" vertex="1" parent="1">
          <mxGeometry x="310" y="1460" width="60" height="30" as="geometry" />
        </mxCell>
        <mxCell id="lBTAzKMEYhYNqTVkXOKm-3" value="" style="shape=curlyBracket;whiteSpace=wrap;html=1;rounded=1;labelPosition=left;verticalLabelPosition=middle;align=right;verticalAlign=middle;rotation=-90;" vertex="1" parent="1">
          <mxGeometry x="965" y="1125" width="20" height="650" as="geometry" />
        </mxCell>
        <mxCell id="lBTAzKMEYhYNqTVkXOKm-4" value="45 dÃ­as" style="text;html=1;strokeColor=none;fillColor=none;align=center;verticalAlign=middle;whiteSpace=wrap;rounded=0;" vertex="1" parent="1">
          <mxGeometry x="920" y="1460" width="60" height="30" as="geometry" />
        </mxCell>
        <mxCell id="lBTAzKMEYhYNqTVkXOKm-5" value="Local authentication (Optional)" style="whiteSpace=wrap;html=1;rounded=1;" vertex="1" parent="1">
          <mxGeometry x="40" y="930" width="120" height="60" as="geometry" />
        </mxCell>
        <mxCell id="lBTAzKMEYhYNqTVkXOKm-7" value="*Optional authentication: depends of the level security.&lt;br&gt;The suggest is the authentication will be when execute the registry sync, because if implement local authentication is necessary to have all information of the users in local device, this scenery show a risk if the devises don&#39;t have security access&amp;nbsp;like a pattern, password, fingerprint or etc" style="text;html=1;strokeColor=none;fillColor=none;align=center;verticalAlign=middle;whiteSpace=wrap;rounded=0;" vertex="1" parent="1">
          <mxGeometry x="40" y="1320" width="310" height="100" as="geometry" />
        </mxCell>
      </root>
    </mxGraphModel>
  </diagram>
</mxfile>
